<svg id="Capa_1" enable-background="new 0 0 512 512" height="512" viewBox="0 0 512 512" width="512" xmlns="http://www.w3.org/2000/svg"><g><g><path d="m312.743 504.512h-97.866c-5.514 0-9.984-4.47-9.984-9.984v-219.812h182.011c5.514 0 9.984 4.47 9.984 9.984v135.668c0 3.177-1.262 6.225-3.509 8.471l-72.165 72.165c-2.247 2.246-5.294 3.508-8.471 3.508z" fill="#f4fbff"/></g><g><path d="m386.904 274.716h-12.405v123.263c0 3.177-1.262 6.225-3.509 8.471l-72.165 72.165c-2.247 2.247-5.294 3.509-8.471 3.509h-85.461v12.405c0 5.514 4.47 9.984 9.984 9.984h97.866c3.177 0 6.225-1.262 8.471-3.509l72.165-72.165c2.247-2.247 3.509-5.294 3.509-8.471v-135.668c-.001-5.514-4.47-9.984-9.984-9.984z" fill="#e4f6ff"/></g><g><path d="m350.745 354.793 43.968-76.303c-1.829-2.297-4.644-3.774-7.809-3.774h-35.03l-16.074 80.077z" fill="#d3effb"/></g><g><path d="m386.904 274.716h-12.382l-34.698 60.031-4.024 20.046h14.944l43.968-76.303c-1.828-2.297-4.644-3.774-7.808-3.774z" fill="#b1e4f9"/></g><g><path d="m341.873 360.179h-171.746c-5.523 0-10-4.477-10-10v-141.057h181.747c5.523 0 10 4.477 10 10v131.056c-.001 5.523-4.478 10.001-10.001 10.001z" fill="#f4fbff"/></g><g><path d="m341.89 209.122h-12.405v118.684c0 5.514-4.47 9.984-9.984 9.984h-159.374v12.405c0 5.514 4.47 9.984 9.984 9.984h171.78c5.514 0 9.984-4.47 9.984-9.984v-131.089c-.001-5.514-4.471-9.984-9.985-9.984z" fill="#e4f6ff"/></g><g><path d="m305.731 289.2 43.968-76.303c-1.829-2.297-4.644-3.774-7.809-3.774h-35.031l-16.073 80.077z" fill="#d3effb"/></g><g><path d="m341.89 209.122h-12.33l-34.756 60.066-4.017 20.012h14.944l43.968-76.303c-1.829-2.298-4.645-3.775-7.809-3.775z" fill="#b1e4f9"/></g><g><path d="m296.859 294.585h-171.746c-5.523 0-10-4.477-10-10v-267.097c0-5.523 4.477-10 10-10h171.747c5.523 0 10 4.477 10 10v267.097c-.001 5.523-4.478 10-10.001 10z" fill="#f4fbff"/></g><g><path d="m296.876 7.488h-12.405v254.725c0 5.514-4.47 9.984-9.984 9.984h-159.374v12.405c0 5.514 4.47 9.984 9.984 9.984h171.78c5.514 0 9.984-4.47 9.984-9.984v-267.131c-.001-5.514-4.471-9.983-9.985-9.983z" fill="#e4f6ff"/></g><g><path d="m317.705 433.317v70.105c1.292-.589 2.486-1.395 3.509-2.418l72.165-72.165c1.023-1.023 1.83-2.217 2.418-3.509h-70.105c-4.411 0-7.987 3.576-7.987 7.987z" fill="#d3effb"/></g><g><path d="m365.705 425.33c-.588 1.292-1.395 2.486-2.418 3.509l-45.582 45.582v29.001c1.292-.589 2.486-1.395 3.509-2.418l72.165-72.165c1.023-1.023 1.83-2.217 2.418-3.509z" fill="#b1e4f9"/></g><g><path d="m386.904 267.228h-27.543v-48.122c0-9.634-7.838-17.471-17.471-17.471h-27.543v-124.265c0-4.135-3.352-7.488-7.488-7.488s-7.488 3.352-7.488 7.488v207.231c0 1.376-1.119 2.496-2.496 2.496h-171.78c-1.377 0-2.496-1.12-2.496-2.496v-52.518c0-4.135-3.352-7.488-7.488-7.488s-7.488 3.352-7.488 7.488v52.518c0 9.634 7.838 17.471 17.471 17.471h27.543v48.122c0 9.634 7.838 17.471 17.471 17.471h27.296v126.862c0 9.634 7.838 17.471 17.471 17.471h97.866c5.199 0 10.088-2.025 13.766-5.702l72.165-72.165c3.677-3.678 5.702-8.566 5.702-13.765v-135.667c.001-9.633-7.836-17.471-17.47-17.471zm-2.973 14.976-24.57 42.639v-42.639zm-45.014-65.594-24.57 42.638v-42.638zm-171.303 133.585v-48.122h129.262c6.659 0 12.456-3.748 15.404-9.242l32.106-55.718v113.082c0 1.376-1.119 2.496-2.496 2.496h-171.78c-1.377 0-2.496-1.12-2.496-2.496zm44.767 144.334v-126.863h129.509c6.658 0 12.454-3.746 15.402-9.239l32.107-55.721v115.136h-63.708c-8.533 0-15.475 6.942-15.475 15.475v63.708h-95.34c-1.376 0-2.495-1.12-2.495-2.496zm112.812-8.093v-53.119c0-.275.224-.499.499-.499h53.118z"/><path d="m272.048 425.28c-5.235-1.85-11.011-4.075-14.155-6.54-.483-.379-.839-1.609-.551-3.142.144-.764.809-3.315 3.326-4.073 5.522-1.661 9.032 1.1 9.414 1.421l-.12-.107 2.373.895c7.292 2.751 13.227-6.328 7.781-11.903-1.839-1.696-5.122-3.752-9.382-4.905v-1.182c0-4.135-3.352-7.488-7.488-7.488s-7.488 3.352-7.488 7.488v1.643c-6.746 2.274-11.754 8.127-13.132 15.437-1.314 6.971.994 13.753 6.025 17.699 4.837 3.793 11.705 6.507 18.406 8.876 4.458 1.576 4.909 4.791 4.501 7.21-.571 3.4-3.433 7.075-8.363 7.107-5.494.04-6.943-.19-11.034-2.865-3.706-2.427-8.772-1.138-10.814 2.95-1.728 3.459-.346 7.671 2.903 9.768 4.345 2.806 7.701 4.123 11.507 4.706v1.321c0 4.135 3.352 7.488 7.488 7.488s7.488-3.352 7.488-7.488v-2.126c8.726-2.931 14.304-10.704 15.595-18.379 1.78-10.593-3.958-20.163-14.28-23.811z"/><path d="m272.408 319.684h-64.918c-4.136 0-7.488 3.352-7.488 7.488 0 4.135 3.352 7.488 7.488 7.488h64.918c4.136 0 7.488-3.352 7.488-7.488-.001-4.135-3.353-7.488-7.488-7.488z"/><path d="m115.112 204.13c4.136 0 7.488-3.352 7.488-7.488v-179.171c0-1.376 1.119-2.496 2.496-2.496h171.78c1.377 0 2.496 1.12 2.496 2.496v25.112c0 4.135 3.352 7.488 7.488 7.488s7.488-3.352 7.488-7.488v-25.112c0-9.633-7.838-17.471-17.472-17.471h-171.78c-9.634 0-17.471 7.838-17.471 17.471v179.171c0 4.135 3.351 7.488 7.487 7.488z"/><path d="m160.126 60.453h19.403c4.136 0 7.488-3.352 7.488-7.488s-3.352-7.488-7.488-7.488h-19.403c-4.136 0-7.488 3.352-7.488 7.488s3.352 7.488 7.488 7.488z"/><path d="m263.61 107.009h-103.484c-4.136 0-7.488 3.352-7.488 7.488 0 4.135 3.352 7.488 7.488 7.488h103.484c4.136 0 7.488-3.352 7.488-7.488-.001-4.136-3.353-7.488-7.488-7.488z"/><path d="m160.126 169.297h64.919c4.136 0 7.488-3.352 7.488-7.488s-3.352-7.488-7.488-7.488h-64.919c-4.136 0-7.488 3.352-7.488 7.488s3.352 7.488 7.488 7.488z"/><path d="m271.097 209.122c0-4.135-3.352-7.488-7.488-7.488h-103.483c-4.136 0-7.488 3.352-7.488 7.488s3.352 7.488 7.488 7.488h103.484c4.135 0 7.487-3.352 7.487-7.488z"/><path d="m160.126 248.948c-4.136 0-7.488 3.352-7.488 7.488 0 4.135 3.352 7.488 7.488 7.488h64.919c4.136 0 7.488-3.352 7.488-7.488 0-4.135-3.352-7.488-7.488-7.488z"/></g></g></svg>