<svg height="496pt" viewBox="0 0 496 496" width="496pt" xmlns="http://www.w3.org/2000/svg"><path d="m264 328h-48v-29.921875c0-20 12.480469-37.757813 30.960938-44.796875 1.199218-.480469 2.480468-.882812 3.757812-1.28125l37.761719-10.878906 31.519531-9.121094v-26.078125c-2.71875-1.84375-5.28125-4-7.601562-6.320313-6.476563-6.480468-11.4375-14.5625-14.078126-23.601562h-10.320312c-6.640625 0-12.640625-2.71875-16.960938-7.039062-4.320312-4.320313-7.039062-10.320313-7.039062-16.960938v-56c0-14.398438 3.441406-28 9.601562-40h-265.601562v432h368v-160zm0 0" fill="#e6e9ed"/><path d="m200 360h144v96h-144zm0 0" fill="#fcd770"/><path d="m40 88h192v112h-192zm0 0" fill="#fcd770"/><path d="m440 96v56c0-6.640625-2.71875-12.640625-7.039062-16.960938-4.320313-4.320312-10.320313-7.039062-16.960938-7.039062h-8.238281c-.800781-6.238281-3.601563-11.761719-7.839844-15.921875-4.960937-5.039063-11.84375-8.078125-19.441406-8.078125-2.960938 0-5.921875.480469-8.71875 1.441406l-19.761719 6.558594-19.761719-6.558594c-2.796875-.960937-5.757812-1.441406-8.71875-1.441406-14 0-25.519531 10.480469-27.28125 24h-8.238281c-13.28125 0-24 10.71875-24 24v-56c0-14.398438 3.441406-28 9.601562-40 14.558594-28.480469 44.160157-48 78.398438-48 24.320312 0 46.320312 9.839844 62.238281 25.761719 15.921875 15.917969 25.761719 37.917969 25.761719 62.238281zm0 0" fill="#b27946"/><path d="m440 328h-224v-29.921875c0-20 12.480469-37.757813 30.960938-44.796875 1.199218-.480469 2.480468-.882812 3.757812-1.28125l37.761719-10.878906 23.519531 54.878906 40-32 40 32 23.519531-54.878906 37.761719 10.878906c20.558594 5.921875 34.71875 24.71875 34.71875 46.078125v29.921875zm0 0" fill="#b4dd7f"/><path d="m415.519531 241.121094-23.519531 54.878906-40-32 32-32zm0 0" fill="#8cc152"/><path d="m352 264-40 32-23.519531-54.878906 31.519531-9.121094zm0 0" fill="#8cc152"/><g fill="#f0d0b4"><path d="m320 205.921875c22.558594 9.519531 27.199219 10.078125 32 10.078125 11.921875 0 22.960938-3.679688 32-10.078125v26.078125l-32 32-32-32zm0 0"/><path d="m416 128c6.640625 0 12.640625 2.71875 16.960938 7.039062 4.320312 4.320313 7.039062 10.320313 7.039062 16.960938 0 13.28125-10.71875 24-24 24h-10.320312c1.519531-5.039062 2.320312-10.398438 2.320312-16v-28.480469c0-1.199219-.078125-2.398437-.238281-3.519531zm0 0"/><path d="m408 131.519531v28.480469c0 5.601562-.800781 10.960938-2.320312 16-3.679688 12.320312-11.359376 22.800781-21.679688 29.921875-9.039062 6.398437-20.078125 10.078125-32 10.078125-4.800781 0-9.441406-.558594-32-10.078125-2.71875-1.84375-5.28125-4-7.601562-6.320313-6.476563-6.480468-11.4375-14.5625-14.078126-23.601562-1.519531-5.039062-2.320312-10.398438-2.320312-16v-28.480469c0-1.199219.078125-2.398437.238281-3.519531 1.761719-13.519531 13.28125-24 27.28125-24 2.960938 0 5.921875.480469 8.71875 1.441406l19.761719 6.558594 19.761719-6.558594c2.796875-.960937 5.757812-1.441406 8.71875-1.441406 7.597656 0 14.480469 3.039062 19.441406 8.078125 4.238281 4.160156 7.039063 9.683594 7.839844 15.921875.160156 1.121094.238281 2.320312.238281 3.519531zm0 0"/><path d="m296.238281 128c-.160156 1.121094-.238281 2.320312-.238281 3.519531v28.480469c0 5.601562.800781 10.960938 2.320312 16h-10.320312c-6.640625 0-12.640625-2.71875-16.960938-7.039062-4.320312-4.320313-7.039062-10.320313-7.039062-16.960938 0-13.28125 10.71875-24 24-24zm0 0"/></g><path d="m496 298.113281c0-24.808593-16.648438-46.921875-40.480469-53.808593l-63.519531-18.320313v-16.105469c8.457031-6.789062 15.144531-15.679687 19.289062-25.878906h4.710938c17.648438 0 32-14.351562 32-32v-56c0-52.9375-43.0625-96-96-96-35.441406 0-66.382812 19.351562-83.007812 48h-268.992188v448h384v-160h112zm-91.390625-51.839843-15.824219 36.917968-24.816406-19.847656 22.34375-22.34375zm-28.609375-17.585938-24 24-24-24v-9.398438c7.414062 3.015626 15.511719 4.710938 24 4.710938s16.585938-1.695312 24-4.710938zm-58.320312 12.304688 22.34375 22.34375-24.816407 19.847656-15.824219-36.917969zm82.320312-80.992188c0 26.472656-21.527344 48-48 48s-48-21.527344-48-48v-28.472656c0-10.765625 8.761719-19.527344 19.527344-19.527344 2.105468 0 4.175781.335938 6.175781 1l22.296875 7.433594 22.296875-7.433594c1.992187-.664062 4.0625-1 6.175781-1 10.765625 0 19.527344 8.761719 19.527344 19.527344zm16 8h-.550781c.328125-2.625.550781-5.289062.550781-8v-24c8.824219 0 16 7.175781 16 16s-7.175781 16-16 16zm-64-152c44.113281 0 80 35.886719 80 80v28.449219c-4.726562-2.753907-10.144531-4.449219-16-4.449219h-2.089844c-4.8125-13.921875-17.910156-24-33.445312-24-3.832032 0-7.609375.617188-11.242188 1.832031l-17.222656 5.734375-17.230469-5.742187c-3.625-1.207031-7.410156-1.824219-11.242187-1.824219-15.535156 0-28.632813 10.078125-33.449219 24h-2.078125c-5.855469 0-11.273438 1.695312-16 4.449219v-28.449219c0-44.113281 35.886719-80 80-80zm-63.449219 152h-.550781c-8.824219 0-16-7.175781-16-16s7.175781-16 16-16v24c0 2.710938.222656 5.375.550781 8zm79.449219 312h-352v-416h245.601562c-3.5625 10.023438-5.601562 20.769531-5.601562 32v56c0 17.648438 14.351562 32 32 32h4.710938c4.144531 10.199219 10.832031 19.089844 19.289062 25.878906v16.105469l-63.519531 18.320313c-23.832031 6.878906-40.480469 29-40.480469 53.808593v37.886719h160zm112-160h-32v-40h-16v40h-160v-40h-16v40h-32v-21.886719c0-17.714843 11.886719-33.511719 28.910156-38.433593l30.984375-8.945313 24.890625 58.074219 43.214844-34.5625 43.207031 34.570312 24.890625-58.074218 30.980469 8.945312c17.035156 4.90625 28.921875 20.710938 28.921875 38.425781zm0 0"/><path d="m192 464h160v-112h-160zm16-96h128v80h-128zm0 0"/><path d="m32 352h16v16h-16zm0 0"/><path d="m64 352h112v16h-112zm0 0"/><path d="m32 384h144v16h-144zm0 0"/><path d="m32 416h144v16h-144zm0 0"/><path d="m32 448h112v16h-112zm0 0"/><path d="m240 80h-208v128h208zm-16 112h-176v-96h176zm0 0"/><path d="m32 224h208v16h-208zm0 0"/><path d="m32 256h160v16h-160zm0 0"/><path d="m32 288h160v16h-160zm0 0"/></svg>