<svg id="Capa_1" enable-background="new 0 0 512 512" height="512" viewBox="0 0 512 512" width="512" xmlns="http://www.w3.org/2000/svg"><g><g><path d="m59.018 326.169c4.142 0 7.5-3.358 7.5-7.5v-303.669h356.74v41.25c0 4.142 3.358 7.5 7.5 7.5s7.5-3.358 7.5-7.5v-48.75c0-4.142-3.358-7.5-7.5-7.5h-371.74c-4.142 0-7.5 3.358-7.5 7.5v311.169c0 4.143 3.358 7.5 7.5 7.5z"/><path d="m143.872 83.691h202.032c4.142 0 7.5-3.358 7.5-7.5v-34.345c0-4.142-3.358-7.5-7.5-7.5h-202.032c-4.142 0-7.5 3.358-7.5 7.5v34.345c0 4.142 3.358 7.5 7.5 7.5zm7.5-34.345h187.032v19.345h-187.032z"/><path d="m151.953 189.911h-40.406c-4.142 0-7.5 3.358-7.5 7.5s3.358 7.5 7.5 7.5h40.406c4.142 0 7.5-3.358 7.5-7.5s-3.358-7.5-7.5-7.5z"/><path d="m159.453 233.776c0-4.142-3.358-7.5-7.5-7.5h-40.406c-4.142 0-7.5 3.358-7.5 7.5s3.358 7.5 7.5 7.5h40.406c4.142 0 7.5-3.358 7.5-7.5z"/><path d="m378.229 117.179h-236.377c-4.142 0-7.5 3.358-7.5 7.5s3.358 7.5 7.5 7.5h236.378c4.142 0 7.5-3.358 7.5-7.5s-3.358-7.5-7.501-7.5z"/><path d="m385.729 161.045c0-4.142-3.358-7.5-7.5-7.5h-266.682c-4.142 0-7.5 3.358-7.5 7.5s3.358 7.5 7.5 7.5h266.683c4.142 0 7.499-3.358 7.499-7.5z"/><path d="m294.815 306.508c0-4.142-3.358-7.5-7.5-7.5h-175.768c-4.142 0-7.5 3.358-7.5 7.5s3.358 7.5 7.5 7.5h175.768c4.142 0 7.5-3.358 7.5-7.5z"/><path d="m240.848 463.665h-80.813c-4.142 0-7.5 3.358-7.5 7.5s3.358 7.5 7.5 7.5h80.813c4.142 0 7.5-3.358 7.5-7.5s-3.358-7.5-7.5-7.5z"/><path d="m459.779 131.796c-.841-1.803-2.363-3.198-4.232-3.878l-17.289-6.292v-30.34c0-4.142-3.358-7.5-7.5-7.5s-7.5 3.358-7.5 7.5v25.159c-3.3-.291-6.513 1.639-7.7 4.9l-11.545 31.72c-2.683.355-5.082 2.149-6.071 4.867l-13.089 35.962c-1.261-2.369-3.752-3.983-6.623-3.983h-189.91c-4.142 0-7.5 3.358-7.5 7.5s3.358 7.5 7.5 7.5h189.91c.996 0 1.944-.198 2.814-.551l-7.977 21.916h-184.748c-4.142 0-7.5 3.358-7.5 7.5s3.358 7.5 7.5 7.5h179.287l-7.776 21.366h-217.978c-4.142 0-7.5 3.358-7.5 7.5s3.358 7.5 7.5 7.5h212.518l-15.422 42.371c-1.417 3.892.59 8.196 4.483 9.613 3.891 1.416 8.196-.59 9.613-4.483l5.985-16.444 23.874 8.69-38.6 106.051c-2.744 7.538-7.244 14.468-13.016 20.041l-12.022 11.608-1.748-16.62c-.839-7.978.167-16.18 2.912-23.719l20.627-56.673c1.417-3.892-.59-8.196-4.483-9.613-3.893-1.418-8.196.59-9.613 4.483l-20.627 56.673c-3.519 9.668-4.81 20.187-3.734 30.418l3.356 31.911c.3 2.851 2.2 5.282 4.894 6.263.836.304 1.703.452 2.564.452 1.911 0 3.788-.731 5.21-2.104l23.083-22.288c7.402-7.147 13.174-16.035 16.692-25.702l64.858-178.197v246.627h-356.738v-143.268c0-4.142-3.358-7.5-7.5-7.5s-7.5 3.358-7.5 7.5v150.768c0 4.142 3.358 7.5 7.5 7.5h371.74c4.142 0 7.5-3.358 7.5-7.5v-295.339l11.749-32.279c.68-1.869.59-3.932-.25-5.734-.327-.701-.759-1.337-1.272-1.897l11.545-31.721c.68-1.869.59-3.931-.251-5.734zm-32.691 1.726 16.281 5.925-8.689 23.874-16.281-5.926zm-17.616 36.588 23.874 8.69-34.256 94.118-23.874-8.69zm-21.438 133.183-23.874-8.69 5.925-16.28 23.874 8.69z"/><path d="m246.782 400.201c-2.929-2.929-7.678-2.929-10.606 0l-22.821 22.82c-1.24-3.114-3.695-5.667-6.927-7.006-4.754-1.968-10.177-.89-13.816 2.749l-9.42 9.42v-13.335c0-5.146-3.072-9.744-7.826-11.713-4.753-1.968-10.177-.891-13.817 2.748l-55.306 55.306c-2.929 2.929-2.929 7.678 0 10.606 1.464 1.464 3.384 2.197 5.303 2.197s3.839-.732 5.303-2.197l51.342-51.342v13.335c0 5.146 3.072 9.744 7.826 11.713 4.755 1.97 10.178.891 13.816-2.748l10.319-10.319c1.241 3.114 3.695 5.668 6.927 7.006 4.755 1.971 10.178.891 13.816-2.748l25.885-25.885c2.931-2.93 2.931-7.679.002-10.607z"/></g></g></svg>